<?xml version="1.0" encoding="utf-8"?>
<!-- Generator: Adobe Illustrator 19.2.1, SVG Export Plug-In . SVG Version: 6.00 Build 0)  -->
<svg version="1.1" id="Ebene_1" xmlns="http://www.w3.org/2000/svg" xmlns:xlink="http://www.w3.org/1999/xlink" x="0px" y="0px"
	 width="969.1px" height="168px" viewBox="0 0 969.1 168" style="enable-background:new 0 0 969.1 168;" xml:space="preserve">
<style type="text/css">
	.st0{fill-rule:evenodd;clip-rule:evenodd;fill:#6D1C74;}
	.st1{fill:#6D1C74;}
</style>
<g>
	<polygon class="st0" points="6.2,154.3 42.9,154.3 42.9,127 60,108.1 85.5,154.3 126.6,154.3 83.5,82.6 123.8,38.7 79.1,38.7 
		42.8,82.4 42.8,38.7 6.2,38.7 6.2,154.3 	"/>
	<path class="st0" d="M164,69.5H132v84.9h33.7v-45.2c0-4.6,0.3-13.9,12.3-13.9c11.3,0,11.5,8.5,11.5,12.8v46.4h33.7v-53.6
		c0-6.4-0.5-17.7-8.5-25.6c-2.8-2.6-9.5-7.9-22.9-7.9c-18.7,0-25.1,9.5-27.8,13.4V69.5L164,69.5z"/>
	<path class="st0" d="M285.7,65.9c-31.3-0.2-50.1,18.8-50.1,46.7c0,22.8,14.1,45.1,48.3,45.1c32.1,0,50.6-18.8,50.6-45.5
		c0-13.4-5.2-26.2-13.3-33.9C314.7,71.9,302.9,66.1,285.7,65.9L285.7,65.9z M284.7,89.6c15.4-0.5,15.7,16.5,15.7,21.6
		c0,12.8-3.8,22.8-15.6,22.8c-13.8,0-15.7-14.2-15.7-22.4C269.1,102.1,271.9,90,284.7,89.6L284.7,89.6z"/>
	<path class="st0" d="M362.7,154.3h33.6l7.9-37.7c2-9.5,2.1-11.8,2.6-21.5c0.8,11.1,1.1,13.9,3.4,25.2l7.5,33.9h33.6l25.4-84.9
		h-34.6l-7.2,36.5c-1.6,9.7-2,11.8-2.8,22.1c-1.6-13.4-2.1-16.7-4.6-28.8l-6.2-29.8h-29l-6.2,30.6c-2.3,12.1-2.8,15.2-4.1,28
		c-1.3-11.8-1.6-14.3-3.9-26.7l-6.5-31.9h-34.4L362.7,154.3L362.7,154.3z"/>
	<polygon class="st0" points="512.7,154.3 549.2,154.3 549.2,109.8 584.1,109.8 584.1,154.3 621,154.3 621,38.7 584.1,38.7 
		584.1,80.8 549.2,80.8 549.2,38.7 512.7,38.7 512.7,154.3 	"/>
	<path class="st0" d="M683.4,65.9c-31.3-0.2-50.1,18.8-50.1,46.7c0,22.8,14.1,45.1,48.3,45.1c32.1,0,50.6-18.8,50.6-45.5
		c0-13.4-5.2-26.2-13.3-33.9C712.4,71.9,700.6,66.1,683.4,65.9L683.4,65.9z M682.4,89.6c15.4-0.5,15.7,16.5,15.7,21.6
		c0,12.8-3.8,22.8-15.6,22.8c-13.8,0-15.7-14.2-15.7-22.4C666.8,102.1,669.6,90,682.4,89.6L682.4,89.6z"/>
	<path class="st0" d="M760.4,154.3H794l7.9-37.7c2-9.5,2.1-11.8,2.6-21.5c0.8,11.1,1.1,13.9,3.4,25.2l7.5,33.9H849l25.4-84.9h-34.6
		l-7.2,36.5c-1.6,9.7-2,11.8-2.8,22.1c-1.6-13.4-2.1-16.7-4.6-28.8L819,69.5h-29l-6.2,30.6c-2.3,12.1-2.8,15.2-4.1,28
		c-1.3-11.8-1.6-14.3-3.9-26.7l-6.6-31.9h-34.4L760.4,154.3L760.4,154.3z"/>
	<path class="st1" d="M889.2,46.1L889.2,46.1L889.2,46.1c0-9.6,3.9-18.4,10.2-24.7c6.3-6.3,15-10.2,24.6-10.2v0h0h0v0
		c9.6,0,18.3,3.9,24.6,10.2l0,0c6.3,6.3,10.2,15,10.2,24.6h0v0v0h0c0,9.6-3.9,18.3-10.2,24.6c-6.3,6.3-15,10.2-24.6,10.2v0h0h0v0
		c-9.6,0-18.3-3.9-24.6-10.2l0,0C893.2,64.4,889.3,55.7,889.2,46.1L889.2,46.1L889.2,46.1L889.2,46.1z M894.7,46L894.7,46L894.7,46
		L894.7,46L894.7,46c0,8.1,3.3,15.5,8.6,20.8v0c5.3,5.3,12.7,8.6,20.8,8.6v0h0h0v0c8.1,0,15.4-3.3,20.8-8.6
		c5.3-5.3,8.6-12.7,8.6-20.8h0v0v0h0c0-8.1-3.3-15.4-8.6-20.8l0,0l0,0c-5.3-5.3-12.7-8.6-20.8-8.6v0h0h0v0c-8.1,0-15.5,3.3-20.8,8.6
		C898,30.6,894.7,37.9,894.7,46L894.7,46z"/>
	<path class="st0" d="M918,34.9l2.8,17.3h6.7l2.6-17.1V22.3H918V34.9L918,34.9z M918,56.8v12.5h12.1V56.8H918L918,56.8z"/>
</g>
</svg>
