<?xml version="1.0" encoding="utf-8"?>
<!-- Generator: Adobe Illustrator 19.2.1, SVG Export Plug-In . SVG Version: 6.00 Build 0)  -->
<svg version="1.1" id="Ebene_1" xmlns="http://www.w3.org/2000/svg" xmlns:xlink="http://www.w3.org/1999/xlink" x="0px" y="0px"
	 width="427px" height="83.4px" viewBox="0 0 427 83.4" style="enable-background:new 0 0 427 83.4;" xml:space="preserve">
<style type="text/css">
	.st0{fill:#6D1C74;}
	.st1{font-family:'MyriadPro-Bold';}
	.st2{font-size:51.5427px;}
</style>
<text transform="matrix(1 0 0 1 0 70.4946)" class="st0 st1 st2">NUGGET FINDER</text>
<g>
	<path class="st0" d="M380.7,24.5L380.7,24.5L380.7,24.5c0-4.8,1.9-9.1,5.1-12.3c3.1-3.1,7.5-5.1,12.2-5.1l0,0l0,0l0,0l0,0
		c4.8,0,9.1,1.9,12.2,5.1l0,0c3.1,3.1,5.1,7.5,5.1,12.2l0,0l0,0l0,0l0,0c0,4.8-1.9,9.1-5.1,12.2c-3.1,3.1-7.5,5.1-12.2,5.1l0,0l0,0
		l0,0l0,0c-4.8,0-9.1-1.9-12.2-5.1l0,0C382.7,33.6,380.7,29.2,380.7,24.5L380.7,24.5L380.7,24.5L380.7,24.5z M383.4,24.4L383.4,24.4
		L383.4,24.4L383.4,24.4L383.4,24.4c0,4,1.6,7.7,4.3,10.3l0,0c2.6,2.6,6.3,4.3,10.3,4.3l0,0l0,0l0,0l0,0c4,0,7.7-1.6,10.3-4.3
		c2.6-2.6,4.3-6.3,4.3-10.3l0,0l0,0l0,0l0,0c0-4-1.6-7.7-4.3-10.3l0,0l0,0c-2.6-2.6-6.3-4.3-10.3-4.3l0,0l0,0l0,0l0,0
		c-4,0-7.7,1.6-10.3,4.3C385.1,16.8,383.4,20.4,383.4,24.4L383.4,24.4z"/>
	<path class="st0" d="M395,18.9l1.4,8.6h3.3L401,19v-6.4h-6V18.9L395,18.9z M395,29.8V36h6v-6.2H395L395,29.8z"/>
</g>
</svg>
